<svg width="291" height="90" xmlns="http://www.w3.org/2000/svg" xmlns:xlink="http://www.w3.org/1999/xlink" xml:space="preserve" overflow="hidden"><g transform="translate(-481 -622)"><g><g><g><g><g><path d="M0 0C1.23012-0.230165 2.59794-0.322186 3.50906-0.322186 6.83475-0.322186 9.02166 1.47233 9.02166 4.27953 9.02166 7.0406 6.88019 8.92737 3.78239 8.92737 2.64338 8.92737 1.27557 8.78945 0 8.37502ZM-9.28046 23.3312 0 23.3312 0 15.646C1.82246 16.3363 3.70378 16.6585 5.66257 16.6585 12.952 16.6585 18.2367 11.3204 18.2367 4.00347 18.2367-1.51891 14.4554-8.05329 5.84502-8.05329L-9.28046-8.05329Z" fill="#FFFFFF" fill-rule="nonzero" fill-opacity="1" transform="matrix(1 0 0 -1.01209 549.331 678.878)"/><path d="M0 0C2.89695 0 4.89164 1.93289 4.89164 4.69396 4.89164 7.45504 2.89695 9.3877 0 9.3877-2.89695 9.3877-4.89164 7.45504-4.89164 4.69396-4.89164 1.93289-2.89695 0 0 0M0 17.2569C10.2506 17.2569 14.1685 10.5842 14.1685 4.69396 14.1685-1.74862 9.65831-7.86902 0.0911118-7.86902-10.1595-7.86902-14.1687-1.24239-14.1687 4.69396-14.1687 10.9525-9.93164 17.2569 0 17.2569" fill="#FFFFFF" fill-rule="nonzero" fill-opacity="1" transform="matrix(1 0 0 -1.01209 583.173 679.483)"/><path d="M117.138 55.0699 126.406 55.0699 126.406 23.6854 117.138 23.6854Z" fill="#FFFFFF" fill-rule="nonzero" fill-opacity="1" transform="matrix(1 0 0 -1.01209 482.085 711)"/><path d="M0 0C0-3.12893-2.42298-5.66007-5.47398-5.66007-8.52498-5.66007-10.9927-3.12893-10.9927 0-10.9927 3.12916-8.52498 5.6144-5.47398 5.6144-2.42298 5.6144 0 3.12916 0 0" fill="#FFFFFF" fill-rule="nonzero" fill-opacity="1" transform="matrix(1 0 0 -1.01209 620.628 681.719)"/><path d="M0 0C-3.08008-1.15037-4.9548-1.51868-7.49912-1.51868-15.3999-1.51868-20.8903 3.58949-20.8903 10.9064-20.8903 16.9807-16.9177 23.6073-7.767 23.6073-5.26722 23.6073-2.58908 23.1931-0.178361 22.3649L-0.178361 14.3116C-2.23167 15.2779-4.10662 15.7383-6.07064 15.7383-9.37384 15.7383-11.6057 13.8054-11.6057 10.9982-11.6057 8.23733-9.24001 6.35034-5.80276 6.35034-4.06186 6.35034-2.54431 6.76454-1.61444e-15 7.86902Z" fill="#FFFFFF" fill-rule="nonzero" fill-opacity="1" transform="matrix(1 0 0 -1.01209 641.591 685.91)"/><path d="M0 0C2.89717 0 4.89164 1.93289 4.89164 4.69396 4.89164 7.45504 2.89717 9.3877 0 9.3877-2.89695 9.3877-4.89164 7.45504-4.89164 4.69396-4.89164 1.93289-2.89695 0 0 0M0 17.2569C10.2506 17.2569 14.1687 10.5842 14.1687 4.69396 14.1687-1.74862 9.65854-7.86902 0.0911118-7.86902-10.1595-7.86902-14.1685-1.24239-14.1685 4.69396-14.1685 10.9525-9.93164 17.2569 0 17.2569" fill="#FFFFFF" fill-rule="nonzero" fill-opacity="1" transform="matrix(1 0 0 -1.01209 656.991 679.483)"/><path d="M0 0 9.26319 0 9.26319-3.22141C11.5067-0.736165 14.1487 0.414207 17.0788 0.414207 20.4213 0.414207 22.5735-0.87431 24.3591-3.91145 26.786-1.10425 29.762 0.414207 32.9673 0.414207 38.416 0.414207 40.7777-3.91145 40.7777-8.74333L40.7777-24.2976 31.5145-24.2976 31.5145-10.354C31.5145-8.60541 30.4879-7.45504 28.9311-7.45504 27.5574-7.45504 26.0144-8.32935 25.053-9.93982L25.053-24.2976 15.7246-24.2976 15.7246-10.5381C15.7246-8.74333 14.652-7.45504 13.0038-7.45504 11.8132-7.45504 10.2704-8.32935 9.26319-9.93982L9.26319-24.2976 0-24.2976Z" fill="#FFFFFF" fill-rule="nonzero" fill-opacity="1" transform="matrix(1 0 0 -1.01209 673.171 662.437)"/><path d="M0 0C-7.75246 0-14.0594-6.37783-14.0594-14.2175-14.0594-22.0538-7.75246-28.4289 0-28.4289 7.75041-28.4289 14.056-22.0538 14.056-14.2175 14.056-6.37783 7.75041 0 0 0M0-0.900439C7.25418-0.900439 13.1555-6.87451 13.1555-14.2175 13.1555-21.5574 7.25418-27.5285 0-27.5285-7.256-27.5285-13.1592-21.5574-13.1592-14.2175-13.1592-6.87451-7.256-0.900439 0-0.900439" fill="#FFFFFF" fill-rule="nonzero" fill-opacity="1" transform="matrix(1 0 0 -1.01209 724.917 639.414)"/><path d="M0 0 0.0293103-0.054758ZM-3.58858-10.4958C-5.40854-10.4958-7.37301-9.24115-7.37301-7.21419-7.37301-3.35728-2.47524 0.186313-0.787515 0.973374-0.523723 1.09698-0.110652 0.59484 0.0468056 0.279697 0.175862 0.0220395 0.124512-0.074071 0.0586206-0.109289-3.01487-1.75521-6.32262-4.8437-6.32262-7.7361-6.32262-8.9894-5.6637-9.47768-3.97234-9.47768-1.98378-9.47768 2.53182-6.73864 2.53182-4.76417 2.53182-4.02505 1.98333-3.65015 0.902484-3.65015-1.77657-3.65015-3.22027-5.39627-3.64266-6.89155-3.67424-7.00334-3.79716-7.05174-3.96212-7.01788-4.17615-6.97403-4.39154-6.80885-4.36701-6.61845-4.19478-5.29176-2.7872-2.3839 0.27538-2.3839 1.64865-2.3839 3.32638-3.6163 3.32638-5.05478 3.32638-7.8572-0.569165-10.4958-3.58858-10.4958" fill="#FFFFFF" fill-rule="nonzero" fill-opacity="1" transform="matrix(1 0 0 -1.01209 721.986 644.481)"/><path d="M0 0C-1.51277 0-4.07345 0.68368-4.07345 3.24549-4.07345 5.22382-2.41617 7.54819 0.719125 9.96686L0.797285 10.0273C1.00609 10.1902 1.52822 9.8603 1.76452 9.56742 1.97765 9.30318 1.87904 9.17276 1.82655 9.12913 0.334683 7.88015-3.1596 4.95548-3.1596 2.5843-3.1596 1.66523-2.42389 1.09448-1.23921 1.09448 0.314915 1.09448 2.24939 1.54299 4.20864 2.35732 4.45994 2.46047 4.75531 2.12534 4.88573 1.85359 5.00388 1.60707 4.99502 1.41666 4.86233 1.34373 3.12121 0.389441 1.71249 0 0 0" fill="#FFFFFF" fill-rule="nonzero" fill-opacity="1" transform="matrix(1 0 0 -1.01209 722.793 664.57)"/><path d="M0 0C-3.30752 0-3.34569 2.43843-3.34569 2.54227-3.34569 3.08644-3.01601 3.48315-2.8197 3.67128-2.68019 3.80534-2.39322 3.7349-2.27666 3.6981-2.04604 3.62607-1.79861 3.48088-1.76589 3.31979-1.75248 3.25276-1.77679 3.18891-1.83496 3.13938-2.3012 2.74403-2.52296 2.45866-2.52296 1.90721-2.52296 1.43439-2.03036 0.932249-1.11697 0.932249 2.47888 0.932249 4.77235 4.02301 4.77235 5.63939 4.77235 7.11354 3.68946 7.42277 2.78107 7.42277-0.372854 7.42277-2.68564 4.407-2.78243 4.27862-2.82992 4.21591-2.89945 4.18887-2.98124 4.19887-3.22822 4.22954-3.56972 4.60967-3.69878 4.91618-3.76989 5.08522-3.77262 5.22087-3.70627 5.30766-3.45293 5.64053-2.71336 6.46303-1.7259 7.19329-0.445562 8.13963 0.797058 8.61972 1.96674 8.61972 4.47993 8.61972 5.62485 6.78363 5.62485 5.07818 5.62485 2.37277 2.99647 0 0 0" fill="#FFFFFF" fill-rule="nonzero" fill-opacity="1" transform="matrix(1 0 0 -1.01209 729.402 655.245)"/></g></g></g></g></g></g></svg>