<svg version="1.1" id="Layer_1" xmlns="http://www.w3.org/2000/svg" xmlns:xlink="http://www.w3.org/1999/xlink" x="0px" y="0px"
	 width="100%" viewBox="0 0 2913 2173" enable-background="new 0 0 2913 2173" xml:space="preserve">
<path fill="#FFFFFF" opacity="1.000000" stroke="none" 
	d="
M2.000000,1868.000000 
	C2.000000,1246.122803 2.000000,624.245667 2.000000,2.000000 
	C784.056030,2.000000 1566.112183,2.000000 2349.155518,2.484212 
	C2350.142822,2.968425 2349.872559,3.909268 2348.947754,3.873683 
	C2318.759277,4.083646 2289.770752,7.535738 2260.015137,10.570249 
	C2260.015137,14.555161 2259.777588,17.830111 2260.055176,21.060774 
	C2261.422119,36.967381 2262.393555,52.932419 2264.479492,68.748245 
	C2271.238037,119.992165 2282.766846,170.193314 2298.975830,219.279007 
	C2331.705322,318.393127 2379.002441,410.113983 2440.438965,494.405090 
	C2506.869873,585.548401 2586.995361,662.312683 2683.039551,721.995544 
	C2687.445557,724.733459 2691.928955,727.346558 2696.520508,730.104309 
	C2699.686035,725.637817 2702.257812,722.168396 2704.665039,718.588074 
	C2740.571533,665.174438 2772.662842,609.597229 2800.515137,551.533936 
	C2842.438965,464.135315 2874.412354,373.327789 2894.802979,278.545227 
	C2904.529541,233.332092 2913.053223,187.890427 2914.346924,141.441589 
	C2914.397949,139.613800 2915.426758,137.813263 2916.000000,136.000015 
	C2916.000000,815.856934 2916.000000,1495.713867 2916.000000,2176.000000 
	C2278.610596,2176.000000 1641.221191,2176.000000 1003.282471,2175.402344 
	C1026.728638,2163.274902 1050.793091,2151.886475 1074.708130,2140.192139 
	C1218.857300,2069.703857 1362.973389,1999.148193 1507.097534,1928.608887 
	C1534.827759,1915.036743 1553.851196,1893.577515 1563.682983,1864.417969 
	C1593.989136,1774.534546 1624.019653,1684.558228 1654.100098,1594.598877 
	C1655.028687,1591.821777 1655.326904,1588.833740 1656.190918,1585.878418 
	C1656.334717,1585.906738 1656.206421,1586.000610 1655.313477,1585.902100 
	C1653.255737,1586.012573 1651.906372,1586.167969 1650.677979,1586.639038 
	C1582.138428,1612.932495 1511.656006,1632.153320 1439.062866,1642.975464 
	C1406.846558,1647.778198 1374.351318,1651.170044 1341.861328,1653.535767 
	C1314.655396,1655.516968 1287.274048,1655.399658 1259.967896,1655.496460 
	C1252.356934,1655.523438 1247.031982,1657.600708 1241.660767,1662.994263 
	C1150.416138,1754.621216 1058.979736,1846.057251 967.582947,1937.532593 
	C945.440247,1959.694336 923.158630,1981.719116 901.181458,2004.043701 
	C884.959412,2020.522217 882.363281,2043.309692 894.669128,2062.736328 
	C913.742371,2092.846191 933.185425,2122.722412 952.579651,2152.627686 
	C958.529358,2161.802002 966.457581,2168.709229 976.931335,2172.475342 
	C979.391785,2173.360352 981.649170,2174.810059 984.000000,2176.000000 
	C656.878235,2176.000000 329.756439,2176.000000 2.000000,2176.000000 
	C2.000000,2074.611572 2.000000,1973.221680 2.937778,1870.875732 
	C7.534022,1870.009399 11.201024,1870.307251 14.849662,1870.157471 
	C59.762985,1868.314331 104.678955,1866.522217 149.583084,1864.472534 
	C179.185532,1863.121338 208.772903,1861.428589 238.361053,1859.781250 
	C250.659485,1859.096436 262.952545,1858.258667 275.230164,1857.268311 
	C304.090912,1854.940186 332.948181,1852.561890 361.792786,1850.042725 
	C382.621490,1848.223511 403.441620,1846.281860 424.240082,1844.146484 
	C448.729431,1841.631958 473.211884,1839.023926 497.659668,1836.137695 
	C526.356018,1832.749756 555.113037,1829.675659 583.661743,1825.282837 
	C626.270935,1818.726807 668.807373,1811.608887 711.215881,1803.860596 
	C758.671875,1795.190063 805.486694,1783.712646 851.738953,1769.872803 
	C913.386841,1751.426147 970.090088,1723.711060 1019.683105,1682.266479 
	C1022.390747,1680.003540 1024.936401,1677.546875 1027.940063,1674.834839 
	C997.517273,1624.098389 967.584961,1574.180054 937.281311,1523.642334 
	C934.255676,1526.491089 931.871887,1528.757690 929.464294,1530.998901 
	C897.660583,1560.601807 862.198669,1584.131592 820.701477,1598.209717 
	C780.918274,1611.706299 740.272888,1621.811157 699.124817,1629.809814 
	C662.252808,1636.977417 625.173767,1643.104614 588.125671,1649.332031 
	C568.812622,1652.578369 549.401855,1655.301880 529.976318,1657.803833 
	C509.914032,1660.387695 489.783417,1662.444824 469.676849,1664.679810 
	C447.194611,1667.178955 424.711121,1669.668823 402.218079,1672.068359 
	C385.676819,1673.833008 369.123077,1675.483398 352.566956,1677.103516 
	C347.597473,1677.589722 342.600281,1677.788330 337.617798,1678.146851 
	C332.550903,1678.511230 327.486542,1678.910156 321.032593,1679.399048 
	C323.325348,1675.407471 324.665619,1672.808716 326.244354,1670.363892 
	C384.634247,1579.946533 445.131531,1490.995239 511.349304,1406.069824 
	C545.981689,1361.653442 582.013428,1318.472656 622.881470,1279.475830 
	C652.776184,1250.949829 687.051880,1229.932495 725.634399,1215.618530 
	C732.766724,1212.972412 739.912109,1210.361450 747.797791,1207.459717 
	C717.375244,1156.704224 687.298523,1106.525757 657.066956,1056.088867 
	C626.513672,1068.154541 598.005066,1082.490479 571.177795,1099.977051 
	C536.940002,1122.293945 507.416595,1150.165039 478.956390,1179.295044 
	C434.396698,1224.903442 394.297211,1274.270386 355.608582,1324.825562 
	C306.393402,1389.136108 259.679718,1455.256226 215.824799,1523.313721 
	C172.351608,1590.778931 129.571304,1658.704712 87.455246,1727.025269 
	C60.199306,1771.239868 34.704174,1816.539185 8.332014,1861.300659 
	C6.785469,1863.925537 6.560607,1868.106934 2.000000,1868.000000 
M1699.531738,1500.581421 
	C1705.197266,1498.643311 1710.886108,1496.770630 1716.524780,1494.757446 
	C1881.927612,1435.708984 2037.681396,1357.205444 2184.944824,1261.744263 
	C2245.394043,1222.558960 2302.774902,1179.184570 2357.603760,1132.424927 
	C2411.687744,1086.300659 2462.584229,1036.905273 2510.131104,984.096375 
	C2557.225830,931.789856 2600.548340,876.479675 2640.193115,818.310730 
	C2647.270020,807.926697 2654.071045,797.354614 2661.536377,786.056824 
	C2525.739990,704.186340 2419.983887,593.894897 2339.291504,459.361084 
	C2258.866455,325.272888 2206.945557,181.589233 2197.798340,23.898130 
	C2194.090088,23.898130 2191.449219,23.633295 2188.877197,23.941336 
	C2172.731689,25.875065 2156.571533,27.726383 2140.472656,30.002806 
	C2113.916016,33.757973 2087.321533,37.340771 2060.886230,41.838539 
	C1995.208496,53.013058 1930.809204,69.538940 1867.297852,89.548485 
	C1743.236572,128.634430 1625.551880,182.003021 1513.560303,248.025864 
	C1371.296509,331.895264 1238.516968,428.618958 1117.959229,541.681274 
	C1050.769165,604.693970 988.444092,672.216492 932.906494,745.859619 
	C885.431885,808.811279 843.405396,875.072388 810.186523,946.708679 
	C808.061829,951.290710 804.851990,954.069702 800.755005,956.512329 
	C781.018066,968.279175 761.353149,980.166748 741.662659,992.011475 
	C717.600464,1006.486084 711.566284,1029.386719 725.798950,1053.401978 
	C740.402893,1078.043579 755.276489,1102.525513 770.046326,1127.068604 
	C847.676331,1256.067139 925.309326,1385.063843 1002.944763,1514.059204 
	C1026.302856,1552.869873 1049.696777,1591.658936 1073.018066,1630.491577 
	C1078.536499,1639.680176 1085.938721,1646.567139 1096.195801,1649.988403 
	C1109.767944,1654.515503 1122.248657,1651.941528 1134.330200,1644.562500 
	C1164.741821,1625.988037 1195.286621,1607.627930 1225.964966,1589.497925 
	C1229.737183,1587.268433 1234.603760,1586.127197 1239.035400,1585.901978 
	C1266.628784,1584.499390 1294.257935,1583.784058 1321.846558,1582.305664 
	C1366.375366,1579.919678 1410.432495,1573.403198 1454.274902,1565.605957 
	C1478.473511,1561.302124 1502.509888,1555.997192 1526.490479,1550.573608 
	C1584.628052,1537.425049 1641.675049,1520.419189 1699.531738,1500.581421 
M636.226135,545.030762 
	C618.341553,553.713806 603.760193,567.111755 588.196045,579.040344 
	C482.155975,660.311218 376.260956,741.771240 270.318909,823.169922 
	C241.257797,845.498474 212.119354,867.727295 183.158768,890.185486 
	C160.149979,908.028259 155.418381,930.990356 169.760254,955.328979 
	C187.685562,985.748657 205.736786,1016.097046 224.106506,1046.249023 
	C227.312622,1051.511597 231.748444,1056.466064 236.669830,1060.158936 
	C250.902405,1070.838501 266.517181,1071.160889 283.079529,1065.515869 
	C340.085876,1046.086304 397.217285,1027.023682 454.299896,1007.817688 
	C548.908875,975.985718 643.497986,944.094055 738.168884,912.447083 
	C744.399353,910.364319 747.978394,906.985168 750.746826,901.123718 
	C772.120300,855.871521 796.752808,812.425537 824.405273,770.715820 
	C869.352478,702.919373 921.798584,641.459595 981.129517,585.844666 
	C983.982117,583.170715 986.709412,580.363098 989.579529,577.534424 
	C988.582336,576.765991 988.169678,576.182922 987.679810,576.108582 
	C965.088257,572.681152 942.513428,569.129333 919.884521,565.965637 
	C903.149902,563.626099 886.309387,562.042114 869.577087,559.687256 
	C842.933411,555.937561 816.350769,551.756409 789.723450,547.887695 
	C763.114441,544.021606 736.410889,540.751526 709.880859,536.412170 
	C684.904541,532.326965 660.814087,533.805969 636.226135,545.030762 
z"/>
<path fill="#F1667E" opacity="1.000000" stroke="none" 
	d="
M2916.000000,135.070709 
	C2915.426758,137.813263 2914.397949,139.613800 2914.346924,141.441589 
	C2913.053223,187.890427 2904.529541,233.332092 2894.802979,278.545227 
	C2874.412354,373.327789 2842.438965,464.135315 2800.515137,551.533936 
	C2772.662842,609.597229 2740.571533,665.174438 2704.665039,718.588074 
	C2702.257812,722.168396 2699.686035,725.637817 2696.520508,730.104309 
	C2691.928955,727.346558 2687.445557,724.733459 2683.039551,721.995544 
	C2586.995361,662.312683 2506.869873,585.548401 2440.438965,494.405090 
	C2379.002441,410.113983 2331.705322,318.393127 2298.975830,219.279007 
	C2282.766846,170.193314 2271.238037,119.992165 2264.479492,68.748245 
	C2262.393555,52.932419 2261.422119,36.967381 2260.055176,21.060774 
	C2259.777588,17.830111 2260.015137,14.555161 2260.015137,10.570249 
	C2289.770752,7.535738 2318.759277,4.083646 2349.889648,3.986685 
	C2361.378174,4.064269 2371.003662,4.117646 2380.619385,3.836814 
	C2383.095459,3.764498 2385.540527,2.640722 2388.000000,1.999984 
	C2405.375244,2.000000 2422.750244,2.000000 2441.660889,2.578300 
	C2454.847656,3.401735 2466.499023,3.646869 2479.071289,3.856666 
	C2490.281006,4.396783 2500.567627,5.014012 2510.858887,5.540386 
	C2553.037842,7.697744 2594.819580,13.427380 2636.395020,20.442945 
	C2690.178711,29.518587 2743.153320,42.156857 2795.069580,59.056118 
	C2836.527344,72.550941 2877.290771,87.729645 2916.000000,108.000000 
	C2916.000000,116.713799 2916.000000,125.427605 2916.000000,135.070709 
z"/>
<path fill="#F1667E" opacity="1.000000" stroke="none" 
	d="
M2.000000,1868.500000 
	C6.560607,1868.106934 6.785469,1863.925537 8.332014,1861.300659 
	C34.704174,1816.539185 60.199306,1771.239868 87.455246,1727.025269 
	C129.571304,1658.704712 172.351608,1590.778931 215.824799,1523.313721 
	C259.679718,1455.256226 306.393402,1389.136108 355.608582,1324.825562 
	C394.297211,1274.270386 434.396698,1224.903442 478.956390,1179.295044 
	C507.416595,1150.165039 536.940002,1122.293945 571.177795,1099.977051 
	C598.005066,1082.490479 626.513672,1068.154541 657.066956,1056.088867 
	C687.298523,1106.525757 717.375244,1156.704224 747.797791,1207.459717 
	C739.912109,1210.361450 732.766724,1212.972412 725.634399,1215.618530 
	C687.051880,1229.932495 652.776184,1250.949829 622.881470,1279.475830 
	C582.013428,1318.472656 545.981689,1361.653442 511.349304,1406.069824 
	C445.131531,1490.995239 384.634247,1579.946533 326.244354,1670.363892 
	C324.665619,1672.808716 323.325348,1675.407471 321.032593,1679.399048 
	C327.486542,1678.910156 332.550903,1678.511230 337.617798,1678.146851 
	C342.600281,1677.788330 347.597473,1677.589722 352.566956,1677.103516 
	C369.123077,1675.483398 385.676819,1673.833008 402.218079,1672.068359 
	C424.711121,1669.668823 447.194611,1667.178955 469.676849,1664.679810 
	C489.783417,1662.444824 509.914032,1660.387695 529.976318,1657.803833 
	C549.401855,1655.301880 568.812622,1652.578369 588.125671,1649.332031 
	C625.173767,1643.104614 662.252808,1636.977417 699.124817,1629.809814 
	C740.272888,1621.811157 780.918274,1611.706299 820.701477,1598.209717 
	C862.198669,1584.131592 897.660583,1560.601807 929.464294,1530.998901 
	C931.871887,1528.757690 934.255676,1526.491089 937.281311,1523.642334 
	C967.584961,1574.180054 997.517273,1624.098389 1027.940063,1674.834839 
	C1024.936401,1677.546875 1022.390747,1680.003540 1019.683105,1682.266479 
	C970.090088,1723.711060 913.386841,1751.426147 851.738953,1769.872803 
	C805.486694,1783.712646 758.671875,1795.190063 711.215881,1803.860596 
	C668.807373,1811.608887 626.270935,1818.726807 583.661743,1825.282837 
	C555.113037,1829.675659 526.356018,1832.749756 497.659668,1836.137695 
	C473.211884,1839.023926 448.729431,1841.631958 424.240082,1844.146484 
	C403.441620,1846.281860 382.621490,1848.223511 361.792786,1850.042725 
	C332.948181,1852.561890 304.090912,1854.940186 275.230164,1857.268311 
	C262.952545,1858.258667 250.659485,1859.096436 238.361053,1859.781250 
	C208.772903,1861.428589 179.185532,1863.121338 149.583084,1864.472534 
	C104.678955,1866.522217 59.762985,1868.314331 14.849662,1870.157471 
	C11.201024,1870.307251 7.534022,1870.009399 2.937778,1869.959717 
	C2.000000,1870.000000 2.000000,1869.000000 2.000000,1868.500000 
z"/>
<path fill="#F1667E" opacity="1.000000" stroke="none" 
	d="
M984.899963,2176.000000 
	C981.649170,2174.810059 979.391785,2173.360352 976.931335,2172.475342 
	C966.457581,2168.709229 958.529358,2161.802002 952.579651,2152.627686 
	C933.185425,2122.722412 913.742371,2092.846191 894.669128,2062.736328 
	C882.363281,2043.309692 884.959412,2020.522217 901.181458,2004.043701 
	C923.158630,1981.719116 945.440247,1959.694336 967.582947,1937.532593 
	C1058.979736,1846.057251 1150.416138,1754.621216 1241.660767,1662.994263 
	C1247.031982,1657.600708 1252.356934,1655.523438 1259.967896,1655.496460 
	C1287.274048,1655.399658 1314.655396,1655.516968 1341.861328,1653.535767 
	C1374.351318,1651.170044 1406.846558,1647.778198 1439.062866,1642.975464 
	C1511.656006,1632.153320 1582.138428,1612.932495 1650.677979,1586.639038 
	C1651.906372,1586.167969 1653.255737,1586.012573 1655.276123,1585.861816 
	C1656.003662,1586.013916 1655.918823,1585.944092 1655.918823,1585.944092 
	C1655.326904,1588.833740 1655.028687,1591.821777 1654.100098,1594.598877 
	C1624.019653,1684.558228 1593.989136,1774.534546 1563.682983,1864.417969 
	C1553.851196,1893.577515 1534.827759,1915.036743 1507.097534,1928.608887 
	C1362.973389,1999.148193 1218.857300,2069.703857 1074.708130,2140.192139 
	C1050.793091,2151.886475 1026.728638,2163.274902 1002.366577,2175.402344 
	C996.599976,2176.000000 991.199951,2176.000000 984.899963,2176.000000 
z"/>
<path fill="#FFFEFE" opacity="1.000000" stroke="none" 
	d="
M2916.000000,107.062683 
	C2877.290771,87.729645 2836.527344,72.550941 2795.069580,59.056118 
	C2743.153320,42.156857 2690.178711,29.518587 2636.395020,20.442945 
	C2594.819580,13.427380 2553.037842,7.697744 2510.858887,5.540386 
	C2500.567627,5.014012 2490.281006,4.396783 2478.936523,3.391500 
	C2477.880615,2.961670 2478.000000,2.000000 2478.000000,2.000000 
	C2623.764893,2.000000 2769.529785,2.000000 2916.000000,2.000000 
	C2916.000000,36.705269 2916.000000,71.415321 2916.000000,107.062683 
z"/>
<path fill="#F495A1" opacity="1.000000" stroke="none" 
	d="
M2387.063477,1.999984 
	C2385.540527,2.640722 2383.095459,3.764498 2380.619385,3.836814 
	C2371.003662,4.117646 2361.378174,4.064269 2350.814453,4.022269 
	C2349.872559,3.909268 2350.142822,2.968425 2350.071289,2.484212 
	C2362.042236,2.000000 2374.084717,2.000000 2387.063477,1.999984 
z"/>
<path fill="#F495A1" opacity="1.000000" stroke="none" 
	d="
M2477.063965,2.000000 
	C2478.000000,2.000000 2477.880615,2.961670 2478.015625,3.426836 
	C2466.499023,3.646869 2454.847656,3.401735 2442.598145,2.578300 
	C2453.375977,2.000000 2464.752197,2.000000 2477.063965,2.000000 
z"/>
<path fill="#F1667E" opacity="1.000000" stroke="none" 
	d="
M1698.806030,1500.897705 
	C1641.675049,1520.419189 1584.628052,1537.425049 1526.490479,1550.573608 
	C1502.509888,1555.997192 1478.473511,1561.302124 1454.274902,1565.605957 
	C1410.432495,1573.403198 1366.375366,1579.919678 1321.846558,1582.305664 
	C1294.257935,1583.784058 1266.628784,1584.499390 1239.035400,1585.901978 
	C1234.603760,1586.127197 1229.737183,1587.268433 1225.964966,1589.497925 
	C1195.286621,1607.627930 1164.741821,1625.988037 1134.330200,1644.562500 
	C1122.248657,1651.941528 1109.767944,1654.515503 1096.195801,1649.988403 
	C1085.938721,1646.567139 1078.536499,1639.680176 1073.018066,1630.491577 
	C1049.696777,1591.658936 1026.302856,1552.869873 1002.944763,1514.059204 
	C925.309326,1385.063843 847.676331,1256.067139 770.046326,1127.068604 
	C755.276489,1102.525513 740.402893,1078.043579 725.798950,1053.401978 
	C711.566284,1029.386719 717.600464,1006.486084 741.662659,992.011475 
	C761.353149,980.166748 781.018066,968.279175 800.755005,956.512329 
	C804.851990,954.069702 808.061829,951.290710 810.186523,946.708679 
	C843.405396,875.072388 885.431885,808.811279 932.906494,745.859619 
	C988.444092,672.216492 1050.769165,604.693970 1117.959229,541.681274 
	C1238.516968,428.618958 1371.296509,331.895264 1513.560303,248.025864 
	C1625.551880,182.003021 1743.236572,128.634430 1867.297852,89.548485 
	C1930.809204,69.538940 1995.208496,53.013058 2060.886230,41.838539 
	C2087.321533,37.340771 2113.916016,33.757973 2140.472656,30.002806 
	C2156.571533,27.726383 2172.731689,25.875065 2188.877197,23.941336 
	C2191.449219,23.633295 2194.090088,23.898130 2197.798340,23.898130 
	C2206.945557,181.589233 2258.866455,325.272888 2339.291504,459.361084 
	C2419.983887,593.894897 2525.739990,704.186340 2661.536377,786.056824 
	C2654.071045,797.354614 2647.270020,807.926697 2640.193115,818.310730 
	C2600.548340,876.479675 2557.225830,931.789856 2510.131104,984.096375 
	C2462.584229,1036.905273 2411.687744,1086.300659 2357.603760,1132.424927 
	C2302.774902,1179.184570 2245.394043,1222.558960 2184.944824,1261.744263 
	C2037.681396,1357.205444 1881.927612,1435.708984 1716.524780,1494.757446 
	C1710.886108,1496.770630 1705.197266,1498.643311 1698.806030,1500.897705 
M2090.520264,536.445312 
	C2089.968262,536.071350 2089.402832,535.715698 2088.866211,535.320862 
	C2036.022583,496.444550 1976.877075,482.602814 1912.431763,492.552887 
	C1872.502075,498.717896 1836.414673,514.970764 1805.485718,541.127136 
	C1740.183716,596.352539 1712.018188,667.101013 1722.786499,751.752258 
	C1730.317871,810.957581 1758.363403,860.380493 1805.036133,897.921509 
	C1862.436035,944.091064 1927.940552,959.784851 2000.101440,944.586487 
	C2050.654541,933.939148 2093.136719,908.480530 2126.149658,868.763062 
	C2175.568359,809.308289 2191.809326,741.101318 2174.502441,665.821411 
	C2162.443359,613.366882 2133.998291,570.661133 2090.520264,536.445312 
z"/>
<path fill="#F1667E" opacity="1.000000" stroke="none" 
	d="
M636.899780,544.681763 
	C660.814087,533.805969 684.904541,532.326965 709.880859,536.412170 
	C736.410889,540.751526 763.114441,544.021606 789.723450,547.887695 
	C816.350769,551.756409 842.933411,555.937561 869.577087,559.687256 
	C886.309387,562.042114 903.149902,563.626099 919.884521,565.965637 
	C942.513428,569.129333 965.088257,572.681152 987.679810,576.108582 
	C988.169678,576.182922 988.582336,576.765991 989.579529,577.534424 
	C986.709412,580.363098 983.982117,583.170715 981.129517,585.844666 
	C921.798584,641.459595 869.352478,702.919373 824.405273,770.715820 
	C796.752808,812.425537 772.120300,855.871521 750.746826,901.123718 
	C747.978394,906.985168 744.399353,910.364319 738.168884,912.447083 
	C643.497986,944.094055 548.908875,975.985718 454.299896,1007.817688 
	C397.217285,1027.023682 340.085876,1046.086304 283.079529,1065.515869 
	C266.517181,1071.160889 250.902405,1070.838501 236.669830,1060.158936 
	C231.748444,1056.466064 227.312622,1051.511597 224.106506,1046.249023 
	C205.736786,1016.097046 187.685562,985.748657 169.760254,955.328979 
	C155.418381,930.990356 160.149979,908.028259 183.158768,890.185486 
	C212.119354,867.727295 241.257797,845.498474 270.318909,823.169922 
	C376.260956,741.771240 482.155975,660.311218 588.196045,579.040344 
	C603.760193,567.111755 618.341553,553.713806 636.899780,544.681763 
z"/>
<path fill="#F1667E" opacity="1.000000" stroke="none" 
	d="
M1656.041016,1586.054199 
	C1656.206421,1586.000610 1656.334717,1585.906738 1656.190918,1585.878418 
	C1655.918823,1585.944092 1656.003662,1586.013916 1656.041016,1586.054199 
z"/>
<path fill="#FFFFFF" opacity="1.000000" stroke="none" 
	d="
M2091.084229,536.886536 
	C2133.998291,570.661133 2162.443359,613.366882 2174.502441,665.821411 
	C2191.809326,741.101318 2175.568359,809.308289 2126.149658,868.763062 
	C2093.136719,908.480530 2050.654541,933.939148 2000.101440,944.586487 
	C1927.940552,959.784851 1862.436035,944.091064 1805.036133,897.921509 
	C1758.363403,860.380493 1730.317871,810.957581 1722.786499,751.752258 
	C1712.018188,667.101013 1740.183716,596.352539 1805.485718,541.127136 
	C1836.414673,514.970764 1872.502075,498.717896 1912.431763,492.552887 
	C1976.877075,482.602814 2036.022583,496.444550 2088.866211,535.320862 
	C2089.402832,535.715698 2089.968262,536.071350 2091.084229,536.886536 
z"/>
</svg>